<svg xmlns="http://www.w3.org/2000/svg" viewBox="0 0 900 560" role="img">
<rect width="900" height="560" fill="#ffffff"/>
<defs>
<style>
.t{font-family:Arial,Helvetica,sans-serif;fill:#243447}
.label{font-family:Arial,Helvetica,sans-serif;font-size:22px;font-weight:700;fill:#243447}
.small{font-family:Arial,Helvetica,sans-serif;font-size:17px;fill:#43576b}
.axis{stroke:#2f3f4f;stroke-width:3;fill:none;stroke-linecap:round}
.grid{stroke:#d7e0ea;stroke-width:2}
.line{stroke:#2e86de;stroke-width:7;fill:none;stroke-linecap:round;stroke-linejoin:round}
.wire{stroke:#43576b;stroke-width:4.5;fill:none;stroke-linecap:round;stroke-linejoin:round}
.tile{fill:#ffffff;stroke:#d7e0ea;stroke-width:2}
</style>
</defs>
<rect x="50" y="40" width="800" height="480" rx="24" fill="#f8fff8" stroke="#cfe3c8" stroke-width="2"/>
<g transform="translate(120 120)">
<line class="axis" x1="70" y1="330" x2="710" y2="330"/><line class="axis" x1="70" y1="330" x2="70" y2="55"/>
<g class="grid"><line x1="70" y1="250" x2="710" y2="250"/><line x1="70" y1="170" x2="710" y2="170"/><line x1="190" y1="55" x2="190" y2="330"/><line x1="330" y1="55" x2="330" y2="330"/><line x1="470" y1="55" x2="470" y2="330"/><line x1="610" y1="55" x2="610" y2="330"/></g>
<path class="line" d="M90 310 C175 280 260 215 350 150 C430 92 535 88 690 88"/>
<text class="label" x="390" y="386" text-anchor="middle">light intensity</text>
<text class="label" x="0" y="200" transform="rotate(-90 0 200)" text-anchor="middle">rate of photosynthesis</text>
<circle cx="350" cy="150" r="8" fill="#2e86de"/><text class="small" x="368" y="146">rises</text>
<circle cx="610" cy="88" r="8" fill="#2e86de"/><text class="small" x="628" y="94">levels off</text>
</g>
</svg>