<svg xmlns="http://www.w3.org/2000/svg" viewBox="0 0 1600 1000" role="img" aria-labelledby="title desc">
<title id="title">Wire resistance investigation</title>
<desc id="desc">A clearer wire-resistance investigation with ammeter in series and voltmeter across the test wire.</desc>
<rect width="1600" height="1000" fill="#ffffff"/>
<defs>
  <marker id="arrow" markerWidth="12" markerHeight="12" refX="10" refY="6" orient="auto"><path d="M2 2 L10 6 L2 10 Z" fill="#30465f"/></marker>
  <marker id="arrowBlue" markerWidth="12" markerHeight="12" refX="10" refY="6" orient="auto"><path d="M2 2 L10 6 L2 10 Z" fill="#2563eb"/></marker>
  <marker id="arrowOrange" markerWidth="12" markerHeight="12" refX="10" refY="6" orient="auto"><path d="M2 2 L10 6 L2 10 Z" fill="#ea580c"/></marker>
  <marker id="arrowGreen" markerWidth="12" markerHeight="12" refX="10" refY="6" orient="auto"><path d="M2 2 L10 6 L2 10 Z" fill="#15803d"/></marker>
<style>
  .title{font-family:Arial,Helvetica,sans-serif;font-size:52px;font-weight:800;fill:#1f2f46}
  .sub{font-family:Arial,Helvetica,sans-serif;font-size:28px;fill:#52667a}
  .label{font-family:Arial,Helvetica,sans-serif;font-size:32px;font-weight:750;fill:#223247}
  .text{font-family:Arial,Helvetica,sans-serif;font-size:26px;fill:#223247}
  .small{font-family:Arial,Helvetica,sans-serif;font-size:22px;fill:#516477}
  .tiny{font-family:Arial,Helvetica,sans-serif;font-size:19px;fill:#516477}
  .badgeText{font-family:Arial,Helvetica,sans-serif;font-size:32px;font-weight:800;fill:#ffffff}
  .card{fill:#fbfdff;stroke:#c7d3e0;stroke-width:4}
  .panelBlue{fill:#eef6ff;stroke:#93c5fd;stroke-width:4}
  .panelGreen{fill:#eefbf3;stroke:#9bd0a6;stroke-width:4}
  .panelAmber{fill:#fff8e6;stroke:#e8c96d;stroke-width:4}
  .panelGrey{fill:#f6f8fb;stroke:#ccd7e2;stroke-width:4}
  .callout{fill:#ffffff;stroke:#cad6e2;stroke-width:4}
  .chipBlue{fill:#e0f2fe;stroke:#7dd3fc;stroke-width:3}
  .chipAmber{fill:#fff7ed;stroke:#fdba74;stroke-width:3}
  .chipGreen{fill:#ecfdf5;stroke:#86efac;stroke-width:3}
  .chipLav{fill:#eef2ff;stroke:#a5b4fc;stroke-width:3}
  .wire{stroke:#30465f;stroke-width:8;fill:none;stroke-linecap:round;stroke-linejoin:round}
  .sym{stroke:#30465f;stroke-width:7;fill:none;stroke-linecap:round;stroke-linejoin:round}
  .thin{stroke:#516477;stroke-width:4;fill:none;stroke-linecap:round;stroke-linejoin:round}
  .measure{stroke:#64748b;stroke-width:4;fill:none;stroke-linecap:round;stroke-linejoin:round;stroke-dasharray:10 8}
  .dash{stroke:#64748b;stroke-width:6;fill:none;stroke-linecap:round;stroke-linejoin:round;stroke-dasharray:12 10}

  .arrow{stroke:#30465f;stroke-width:7;fill:none;stroke-linecap:round;stroke-linejoin:round;marker-end:url(#arrow)}
  .arrowBlue{stroke:#2563eb;stroke-width:7;fill:none;stroke-linecap:round;stroke-linejoin:round;marker-end:url(#arrowBlue)}
  .arrowOrange{stroke:#ea580c;stroke-width:7;fill:none;stroke-linecap:round;stroke-linejoin:round;marker-end:url(#arrowOrange)}
  .arrowGreen{stroke:#15803d;stroke-width:7;fill:none;stroke-linecap:round;stroke-linejoin:round;marker-end:url(#arrowGreen)}
</style></defs>
<rect x="70" y="60" width="1460" height="880" rx="38" class="card"/>

<text x="130" y="140" class="title">Investigating wire resistance</text>
<text x="130" y="186" class="sub">A clearer practical setup for changing the test wire and measuring current and voltage.</text>
<g transform="translate(120 240)">
  <rect x="0" y="0" width="940" height="610" rx="36" class="panelGrey"/>
  <path class="wire" d="M120 395 V120 H720"/>
  <circle cx="285" cy="120" r="48" fill="#fff" stroke="#30465f" stroke-width="7"/>
  <text x="285" y="134" text-anchor="middle" class="label">A</text>
  <path class="wire" d="M333 120 H720"/>
  <rect x="420" y="185" width="360" height="82" rx="18" fill="#f8fafc" stroke="#cbd5e1" stroke-width="4"/>
  <line x1="440" y1="226" x2="760" y2="226" stroke="#f59e0b" stroke-width="10" stroke-linecap="round"/>
  <g stroke="#94a3b8" stroke-width="2">
    <line x1="440" y1="205" x2="440" y2="247"/>
    <line x1="480" y1="212" x2="480" y2="240"/>
    <line x1="520" y1="212" x2="520" y2="240"/>
    <line x1="560" y1="212" x2="560" y2="240"/>
    <line x1="600" y1="212" x2="600" y2="240"/>
    <line x1="640" y1="212" x2="640" y2="240"/>
    <line x1="680" y1="212" x2="680" y2="240"/>
    <line x1="720" y1="212" x2="720" y2="240"/>
    <line x1="760" y1="205" x2="760" y2="247"/>
  </g>
  <text x="600" y="172" text-anchor="middle" class="small">test wire on a ruler</text>
  <path class="wire" d="M720 120 H820 V395 H120"/>
  <line class="wire" x1="190" y1="395" x2="190" y2="345"/>
  <line class="wire" x1="242" y1="409" x2="242" y2="331"/>
  <path class="wire" d="M480 120 V310"/>
  <path class="wire" d="M720 120 V310"/>
  <circle cx="600" cy="355" r="50" fill="#fff" stroke="#30465f" stroke-width="7"/>
  <text x="600" y="369" text-anchor="middle" class="label">V</text>
  <path class="measure" d="M455 285 H745"/>
  <line x1="455" y1="274" x2="455" y2="296" class="thin"/>
  <line x1="745" y1="274" x2="745" y2="296" class="thin"/>
  <text x="600" y="274" text-anchor="middle" class="small">length being tested</text>
</g>
<g transform="translate(1110 255)">
  <rect x="0" y="0" width="360" height="160" rx="26" class="callout"/>
  <text x="28" y="50" class="label">Change</text>
  <text x="28" y="95" class="text">wire length or thickness</text>
  <rect x="0" y="190" width="360" height="160" rx="26" class="callout"/>
  <text x="28" y="240" class="label">Measure</text>
  <text x="28" y="285" class="text">current and voltage</text>
  <rect x="0" y="380" width="360" height="160" rx="26" class="callout"/>
  <text x="28" y="430" class="label">Keep the same</text>
  <text x="28" y="475" class="text">material and cell / battery</text>
</g>

</svg>